<svg width="1024" height="1024" viewBox="0 0 1024 1024" fill="none" xmlns="http://www.w3.org/2000/svg">
  <defs>
    <linearGradient id="bgGradient" x1="188" y1="132" x2="850" y2="896" gradientUnits="userSpaceOnUse">
      <stop offset="0" stop-color="#F8FBFF"/>
      <stop offset="0.52" stop-color="#EAF2FF"/>
      <stop offset="1" stop-color="#DDECF3"/>
    </linearGradient>
    <linearGradient id="panelGradient" x1="246" y1="214" x2="778" y2="812" gradientUnits="userSpaceOnUse">
      <stop offset="0" stop-color="#0F2242"/>
      <stop offset="0.58" stop-color="#2454A6"/>
      <stop offset="1" stop-color="#138A8F"/>
    </linearGradient>
    <linearGradient id="orbitGradient" x1="322" y1="346" x2="690" y2="702" gradientUnits="userSpaceOnUse">
      <stop offset="0" stop-color="#8AD8FF"/>
      <stop offset="0.55" stop-color="#E7F4FF"/>
      <stop offset="1" stop-color="#79F0D5"/>
    </linearGradient>
    <linearGradient id="lineGradient" x1="370" y1="334" x2="654" y2="650" gradientUnits="userSpaceOnUse">
      <stop offset="0" stop-color="#9DD7FF"/>
      <stop offset="1" stop-color="#6DE4C7"/>
    </linearGradient>
    <filter id="shadow" x="128" y="112" width="768" height="800" filterUnits="userSpaceOnUse" color-interpolation-filters="sRGB">
      <feFlood flood-opacity="0" result="BackgroundImageFix"/>
      <feColorMatrix in="SourceAlpha" type="matrix" values="0 0 0 0 0 0 0 0 0 0 0 0 0 0 0 0 0 0 127 0" result="hardAlpha"/>
      <feOffset dy="28"/>
      <feGaussianBlur stdDeviation="32"/>
      <feColorMatrix type="matrix" values="0 0 0 0 0.0588235 0 0 0 0 0.117647 0 0 0 0 0.25098 0 0 0 0.16 0"/>
      <feBlend mode="normal" in2="BackgroundImageFix" result="effect1_dropShadow_1_1"/>
      <feBlend mode="normal" in="SourceGraphic" in2="effect1_dropShadow_1_1" result="shape"/>
    </filter>
  </defs>

  <rect x="64" y="64" width="896" height="896" rx="220" fill="url(#bgGradient)"/>
  <circle cx="268" cy="232" r="168" fill="#6C91FF" fill-opacity="0.14"/>
  <circle cx="792" cy="250" r="126" fill="#10B981" fill-opacity="0.14"/>
  <circle cx="796" cy="786" r="156" fill="#2F6FED" fill-opacity="0.08"/>

  <g filter="url(#shadow)">
    <rect x="192" y="184" width="640" height="656" rx="164" fill="url(#panelGradient)"/>
    <path d="M192 324C192 292.519 217.519 267 249 267H775C806.481 267 832 292.519 832 324V366H192V324Z" fill="white" fill-opacity="0.1"/>
    <circle cx="280" cy="316" r="16" fill="white" fill-opacity="0.85"/>
    <circle cx="338" cy="316" r="16" fill="white" fill-opacity="0.5"/>
    <circle cx="396" cy="316" r="16" fill="white" fill-opacity="0.28"/>

    <rect x="286" y="406" width="452" height="330" rx="126" stroke="url(#orbitGradient)" stroke-width="44"/>
    <path d="M398 616L476 536L558 586L648 446" stroke="url(#lineGradient)" stroke-width="36" stroke-linecap="round" stroke-linejoin="round"/>
    <circle cx="398" cy="616" r="32" fill="#EAF6FF"/>
    <circle cx="476" cy="536" r="32" fill="#D8F7F0"/>
    <circle cx="558" cy="586" r="32" fill="#EAF6FF"/>
    <circle cx="648" cy="446" r="32" fill="#D8F7F0"/>

    <path d="M716 650C716 687.555 685.555 718 648 718H376" stroke="white" stroke-opacity="0.22" stroke-width="18" stroke-linecap="round"/>
    <path d="M308 708H598" stroke="white" stroke-opacity="0.18" stroke-width="18" stroke-linecap="round"/>
  </g>
</svg>
